<svg width="16" height="16" viewBox="0 0 16 16" fill="none" xmlns="http://www.w3.org/2000/svg">
<path d="M8.82151 7.64645L8.46795 8L8.82151 8.35356L14.8798 14.4118C14.9282 14.4738 14.9532 14.551 14.9502 14.6299C14.9469 14.7138 14.9122 14.7934 14.8528 14.8528C14.7934 14.9121 14.7139 14.9469 14.63 14.9501C14.5511 14.9532 14.4738 14.9281 14.4119 14.8797L8.35361 8.82145L8.0003 8.46814L7.64675 8.82121L1.56341 14.8962L1.54963 14.91L1.53695 14.9248C1.50707 14.9597 1.4703 14.988 1.42894 15.008C1.38759 15.028 1.34255 15.0393 1.29664 15.041C1.25073 15.0428 1.20496 15.0351 1.16218 15.0183C1.1194 15.0016 1.08055 14.9761 1.04807 14.9437C1.01559 14.9112 0.990166 14.8723 0.973408 14.8296C0.95665 14.7868 0.948915 14.741 0.950688 14.6951C0.952461 14.6492 0.963704 14.6041 0.983713 14.5628C1.00372 14.5214 1.03206 14.4847 1.06695 14.4548L1.08149 14.4423L1.09504 14.4288L7.17837 8.3538L7.53217 8.00049L7.17885 7.64669L1.12043 1.57996C1.07196 1.51798 1.04688 1.4407 1.04993 1.36176C1.05317 1.27787 1.08794 1.19829 1.14731 1.13892C1.20667 1.07956 1.28625 1.04478 1.37015 1.04154C1.449 1.03849 1.5262 1.06352 1.58814 1.11188L7.64626 7.17832L7.99982 7.53235L8.35361 7.17856L14.4119 1.12029C14.4738 1.07188 14.5511 1.04682 14.63 1.04987C14.7139 1.05311 14.7934 1.08789 14.8528 1.14726C14.9122 1.20662 14.9469 1.2862 14.9502 1.37009C14.9532 1.44899 14.9282 1.52623 14.8798 1.58819L8.82151 7.64645Z" fill="#07484A" stroke="#07484A"/>
</svg>
