<svg width="650" height="650" viewBox="0 0 650 650" fill="none" xmlns="http://www.w3.org/2000/svg">
<path d="M275 100C275 113.75 286.25 125 300 125H350C363.75 125 375 113.75 375 100V50C375 36.25 363.75 25 350 25H300C286.25 25 275 36.25 275 50V100Z" fill="white"/>
<path d="M350 150H300C272.425 150 250 127.575 250 100V50C250 22.425 272.425 0 300 0H350C377.575 0 400 22.425 400 50V100C400 127.575 377.575 150 350 150ZM350 100V125V100ZM300 50V100H349.925L350 50H300Z" fill="white"/>
<path d="M275 350C275 363.75 286.25 375 300 375H350C363.75 375 375 363.75 375 350V300C375 286.25 363.75 275 350 275H300C286.25 275 275 286.25 275 300V350Z" fill="white"/>
<path d="M350 400H300C272.425 400 250 377.575 250 350V300C250 272.425 272.425 250 300 250H350C377.575 250 400 272.425 400 300V350C400 377.575 377.575 400 350 400ZM350 350V375V350ZM300 300V350H349.925L350 300H300Z" fill="white"/>
<path d="M275 600C275 613.75 286.25 625 300 625H350C363.75 625 375 613.75 375 600V550C375 536.25 363.75 525 350 525H300C286.25 525 275 536.25 275 550V600Z" fill="white"/>
<path d="M350 650H300C272.425 650 250 627.575 250 600V550C250 522.425 272.425 500 300 500H350C377.575 500 400 522.425 400 550V600C400 627.575 377.575 650 350 650ZM350 600V625V600ZM300 550V600H349.925L350 550H300Z" fill="white"/>
<path d="M525 100C525 113.75 536.25 125 550 125H600C613.75 125 625 113.75 625 100V50C625 36.25 613.75 25 600 25H550C536.25 25 525 36.25 525 50V100Z" fill="white"/>
<path d="M600 150H550C522.425 150 500 127.575 500 100V50C500 22.425 522.425 0 550 0H600C627.575 0 650 22.425 650 50V100C650 127.575 627.575 150 600 150ZM600 100V125V100ZM550 50V100H599.925L600 50H550Z" fill="white"/>
<path d="M525 350C525 363.75 536.25 375 550 375H600C613.75 375 625 363.75 625 350V300C625 286.25 613.75 275 600 275H550C536.25 275 525 286.25 525 300V350Z" fill="white"/>
<path d="M600 400H550C522.425 400 500 377.575 500 350V300C500 272.425 522.425 250 550 250H600C627.575 250 650 272.425 650 300V350C650 377.575 627.575 400 600 400ZM600 350V375V350ZM550 300V350H599.925L600 300H550Z" fill="white"/>
<path d="M525 600C525 613.75 536.25 625 550 625H600C613.75 625 625 613.75 625 600V550C625 536.25 613.75 525 600 525H550C536.25 525 525 536.25 525 550V600Z" fill="white"/>
<path d="M600 650H550C522.425 650 500 627.575 500 600V550C500 522.425 522.425 500 550 500H600C627.575 500 650 522.425 650 550V600C650 627.575 627.575 650 600 650ZM600 600V625V600ZM550 550V600H599.925L600 550H550Z" fill="white"/>
<path d="M25 100C25 113.75 36.25 125 50 125H100C113.75 125 125 113.75 125 100V50C125 36.25 113.75 25 100 25H50C36.25 25 25 36.25 25 50V100Z" fill="white"/>
<path d="M100 150H50C22.425 150 0 127.575 0 100V50C0 22.425 22.425 0 50 0H100C127.575 0 150 22.425 150 50V100C150 127.575 127.575 150 100 150ZM100 100V125V100ZM50 50V100H99.925L100 50H50Z" fill="white"/>
<path d="M25 350C25 363.75 36.25 375 50 375H100C113.75 375 125 363.75 125 350V300C125 286.25 113.75 275 100 275H50C36.25 275 25 286.25 25 300V350Z" fill="white"/>
<path d="M100 400H50C22.425 400 0 377.575 0 350V300C0 272.425 22.425 250 50 250H100C127.575 250 150 272.425 150 300V350C150 377.575 127.575 400 100 400ZM100 350V375V350ZM50 300V350H99.925L100 300H50Z" fill="white"/>
<path d="M25 600C25 613.75 36.25 625 50 625H100C113.75 625 125 613.75 125 600V550C125 536.25 113.75 525 100 525H50C36.25 525 25 536.25 25 550V600Z" fill="white"/>
<path d="M100 650H50C22.425 650 0 627.575 0 600V550C0 522.425 22.425 500 50 500H100C127.575 500 150 522.425 150 550V600C150 627.575 127.575 650 100 650ZM100 600V625V600ZM50 550V600H99.925L100 550H50Z" fill="white"/>
</svg>
